<?xml version="1.0" standalone="no"?>
<!DOCTYPE svg PUBLIC "-//W3C//DTD SVG 20010904//EN"
 "http://www.w3.org/TR/2001/REC-SVG-20010904/DTD/svg10.dtd">
<svg version="1.0" xmlns="http://www.w3.org/2000/svg"
 width="500.000000pt" height="500.000000pt" viewBox="0 0 500.000000 500.000000"
 preserveAspectRatio="xMidYMid meet">

<g transform="translate(0.000000,500.000000) scale(0.100000,-0.100000)"
fill="#000000" stroke="none">
<path d="M0 2500 l0 -2500 2500 0 2500 0 0 2500 0 2500 -2500 0 -2500 0 0
-2500z m2603 2440 c196 -33 397 -106 592 -213 117 -64 130 -77 33 -32 -92 42
-227 87 -329 110 -100 22 -373 31 -481 15 -177 -26 -379 -110 -532 -224 -90
-67 -222 -206 -288 -304 -61 -91 -156 -286 -192 -397 -150 -462 -125 -1031 69
-1570 100 -279 296 -630 472 -849 88 -108 277 -299 378 -381 255 -207 536
-346 825 -410 41 -9 141 -19 221 -22 233 -9 386 21 575 112 337 163 573 459
700 879 21 71 23 75 18 31 -4 -27 -20 -103 -35 -168 -189 -776 -779 -1248
-1486 -1189 -243 21 -425 73 -668 192 -240 117 -445 267 -655 479 -506 511
-837 1211 -910 1925 -16 154 -13 454 5 590 43 322 140 597 296 836 88 134 282
326 409 405 163 100 320 162 484 189 126 22 363 20 499 -4z m-1098 -59 c-6 -4
-41 -29 -78 -54 -396 -262 -671 -736 -764 -1317 -25 -161 -25 -610 1 -785 54
-372 148 -674 313 -1005 159 -322 337 -580 556 -807 403 -418 833 -663 1332
-759 143 -28 456 -26 601 4 61 12 137 31 169 42 87 30 78 16 -12 -18 -213 -82
-346 -106 -583 -106 -192 0 -277 10 -450 55 -158 41 -261 79 -425 159 -758
368 -1374 1195 -1578 2120 -165 741 -49 1459 316 1970 78 109 280 310 378 377
66 46 216 132 229 133 2 0 0 -4 -5 -9z m1300 -252 c351 -70 683 -257 980 -554
611 -609 889 -1525 695 -2290 -73 -290 -193 -515 -374 -704 -106 -110 -197
-180 -319 -246 -99 -53 -116 -54 -29 -1 225 138 421 392 537 696 132 347 154
802 59 1225 -133 592 -506 1169 -970 1500 -421 301 -887 410 -1302 304 -41
-10 -77 -17 -79 -15 -7 6 158 63 237 81 168 39 382 40 565 4z"/>
</g>
</svg>
